<svg xmlns="http://www.w3.org/2000/svg" width="100" height="100" fill="none" viewBox="0 0 100 100"><clipPath id="a"><path d="M10 10h80v80H10z"/></clipPath><path fill="#fff" d="M0 0h100v100H0z"/><g clip-path="url(#a)"><path fill="#fdd335" d="M64.263 74.493c0-2.574-2.07-4.66-4.622-4.66-2.553 0-4.623 2.086-4.623 4.66 0 2.574 2.07 4.66 4.623 4.66 2.553 0 4.622-2.086 4.622-4.66zM49.295 59.401c0-2.574-2.069-4.66-4.622-4.66s-4.622 2.086-4.622 4.66 2.07 4.661 4.622 4.661c2.553 0 4.622-2.086 4.622-4.66z"/><g fill="#000"><path d="M13.078 32.243h2.805c.039.304.126.564.092.808-.367 2.663 1.235 4.053 3.246 5.157 2.663 1.462 5.575 2.118 8.544 2.419 4.656.471 9.279.205 13.678-1.552 1.474-.587 2.824-1.55 4.131-2.484.875-.627 1.197-1.647 1.156-2.774-.042-1.18-.01-2.364-.01-3.658-.305.086-.493.094-.63.183-3.194 2.094-6.758 3.064-10.486 3.462-5.4.575-10.738.297-15.83-1.807-1.477-.61-2.926-1.441-4.17-2.449-3.425-2.772-3.458-6.736-.177-9.68 2.474-2.221 5.509-3.266 8.663-3.911 5.825-1.191 11.622-1.028 17.326.77 2.3.724 4.448 1.768 6.2 3.504 1.23 1.22 2.004 2.668 2.006 4.455.006 5.558.001 11.116-.003 16.674 0 .219-.044.438-.077.74h-2.73l-.172-2.076c-10.21 5.164-20.327 5.138-30.484.09-1.132 3.295-.15 6.091 2.912 7.805 3.26 1.824 6.835 2.433 10.5 2.63 1.782.095 1.676-.301 1.68 1.798v1.25c-5.427.008-10.491-.96-15.194-3.949 0 1.743-.24 3.35.085 4.83.212.964 1.101 1.937 1.935 2.567 2.259 1.706 4.962 2.353 7.688 2.856.576.106 1.158.187 1.903.305l-.251 2.918c-4.095-.338-7.8-1.466-11.188-3.658-1.134 3.96-.296 6.348 3.055 8.19 3.463 1.905 7.265 2.491 11.294 2.576 0-.55.02-1.015-.003-1.477-.288-5.576 1.167-10.618 4.493-15.083.723-.971 1.614-1.19 2.334-.614.697.558.699 1.418.024 2.38-4.361 6.212-5.207 12.862-2.26 19.902 3.199 7.643 11.395 12.43 19.52 11.51 10.511-1.188 17.99-10.045 17.453-20.668-.455-8.983-7.556-16.835-16.408-18.166-4.574-.688-8.829.193-12.853 2.48-.518.295-1.349.306-1.92.108-.32-.11-.609-.956-.536-1.408.075-.46.53-.975.956-1.24 9.587-5.965 22.646-3.302 29.283 5.945 8.485 11.822 4.304 28.075-8.785 34.142-9.376 4.346-21.025 1.255-26.959-7.31-1.354-1.956-2.282-4.23-3.266-6.423-.322-.718-.574-1.051-1.378-1.063-3.365-.048-6.664-.566-9.83-1.759-2.619-.986-5.098-2.24-6.553-4.817-.458-.81-.808-1.817-.813-2.735-.065-10.407-.052-20.813-.058-31.22 0-.11.028-.222.062-.473zM30.94 31.08c3.594-.05 6.793-.432 9.884-1.494 1.856-.638 3.633-1.446 4.981-2.96 1.18-1.324 1.31-2.7.027-3.843-1.24-1.106-2.694-2.082-4.214-2.726-4.148-1.76-8.556-2.051-12.987-1.723-3.348.247-6.63.933-9.6 2.625-1.41.803-2.922 1.709-2.996 3.582-.075 1.913 1.412 2.85 2.823 3.673 3.846 2.243 8.103 2.713 12.082 2.866z"/><path d="M74.26 29.144v-1.388c0-3.616-.002-7.233 0-10.85.002-1.71.42-2.362 1.503-2.349 1.07.013 1.435.624 1.436 2.4 0 2.685.032 5.37-.017 8.054-.016.886.27 1.178 1.131 1.14 1.395-.06 2.793-.038 4.19-.017 1.464.023 2.71.513 3.231 2.028.523 1.52.295 2.942-.87 4.13-4.383 4.461-8.758 8.932-13.151 13.384-1.775 1.799-3.99 1.836-5.766.053A2657.5 2657.5 0 0 1 52.685 32.3c-1.202-1.225-1.325-2.7-.719-4.245.585-1.494 1.794-1.954 3.282-1.922 1.175.026 2.354-.035 3.528.018.84.038 1.19-.22 1.146-1.131-.067-1.376-.029-2.759-.012-4.138.014-1.201.542-1.848 1.455-1.837.906.01 1.422.66 1.43 1.869.013 2.348-.033 4.698.024 7.046.021.908-.213 1.245-1.157 1.212-2.02-.07-4.043-.039-6.064-.01-.324.004-.646.212-.969.326.143.317.211.708.438.94 4.268 4.367 8.555 8.714 12.837 13.066.606.617 1.182.632 1.804-.004 4.27-4.365 8.552-8.717 12.815-13.088.233-.239.325-.618.483-.931-.327-.108-.654-.307-.983-.31-2.53-.026-5.06-.015-7.763-.015zM45.728 79.607c-.55-.454-1.154-.707-1.256-1.095-.14-.535-.085-1.292.204-1.747 1.47-2.316 3.038-4.567 4.577-6.836 2.975-4.386 5.952-8.769 8.928-13.153l.377-.55c.533-.788 1.23-1.074 2.077-.574.777.46.917 1.368.342 2.24a546.123 546.123 0 0 1-4.21 6.28c-3.205 4.724-6.408 9.449-9.642 14.151-.327.476-.864.803-1.397 1.284zM59.73 80.478c-2.994-.012-5.473-2.534-5.46-5.555.011-3.007 2.547-5.571 5.49-5.553 2.975.019 5.457 2.565 5.448 5.59-.01 3.055-2.467 5.53-5.478 5.518zm2.52-5.526a2.503 2.503 0 0 0-2.517-2.533c-1.336.004-2.451 1.112-2.474 2.457-.024 1.46 1.021 2.555 2.45 2.567 1.427.011 2.54-1.08 2.541-2.491zM51.313 59.738c.01 3.1-2.38 5.544-5.423 5.55-3.035.005-5.434-2.424-5.455-5.524-.02-3.079 2.293-5.456 5.332-5.478 3.034-.022 5.536 2.439 5.546 5.452zm-5.394 2.506a2.46 2.46 0 0 0 2.466-2.462c.013-1.298-1.244-2.53-2.577-2.525-1.345.006-2.442 1.13-2.439 2.503.003 1.43 1.1 2.5 2.55 2.484zM59.913 12.453c-.001-1.081-.016.237 0-.845.013-.947.406-1.585 1.43-1.608.899-.02 1.431.528 1.445 1.591.03 2.162.031.36-.002 2.522-.015 1.011-.624 1.617-1.488 1.565-.938-.056-1.37-.633-1.384-1.548-.015-1.08 0-.596-.002-1.677z"/></g><path fill="#fdd335" d="M64.043 30.327V15.013h7.924v15.314h5.723l-9.685 9.543-9.465-9.543z"/></g></svg>