<svg xmlns="http://www.w3.org/2000/svg" width="100" height="100" fill="none" viewBox="0 0 100 100"><path fill="#fff" d="M0 0h100v100H0z"/><g fill="#000"><path d="M68.862 43.686c6.187.586 11.337 3.002 15.386 7.57 4.223 4.765 6.174 10.357 5.676 16.71-.791 10.088-7.636 18.139-17.426 20.388-2.191.504-4.512.458-6.777.62-.88.062-1.77-.005-2.656-.006-15.504 0-31.008.011-46.512-.023-1.096-.003-2.29-.122-3.269-.564C10.93 87.315 10 85.277 10 82.747c.007-12.059.003-24.118.003-36.176 0-9.47-.007-18.94.003-28.41.003-3.05 1.578-5.254 4.28-5.962.648-.169 1.347-.19 2.022-.19 15.436-.01 30.872-.011 46.307-.004 3.234 0 5.386 1.532 6.086 4.345.153.616.154 1.28.154 1.923.01 8.04.007 16.078.007 24.117zM55.7 85.847c-5.962-3.874-9.662-9.056-10.739-15.855-1.08-6.818.656-12.98 5.078-18.377-1.074-.303-1.402-1.016-1.398-1.963.007-1.839-.01-3.678.007-5.517.013-1.467.576-2.004 2.076-2.01 1.873-.007 3.747-.002 5.62-.002 2.019 0 2.414.398 2.457 2.452.004.192.046.383.062.509l6.937-1.59v-.875l-.001-24.213c0-2.525-.823-3.341-3.385-3.342-15.33-.002-30.66-.003-45.989 0-2.45 0-3.36.931-3.36 3.413v63.855c0 2.731.847 3.574 3.609 3.574 12.57.002 25.14.002 37.711 0 .355 0 .711-.031 1.315-.059zm11.736.012c10.51.187 19.391-8.587 19.545-19.31.15-10.466-8.487-19.504-18.687-19.796-11.106-.319-20.11 8.067-20.495 18.835-.413 11.54 8.962 20.422 19.637 20.27zM51.775 48.36c1.339.58 2.097-.454 3.053-.942.99-.505 1.063-1.247.793-2.178h-3.846z"/><path d="M39.498 21.198c5.72 0 11.441-.002 17.161.001 1.65.002 2.134.482 2.137 2.11.004 3.95.004 7.898 0 11.846-.002 1.664-.52 2.184-2.217 2.184-11.407.004-22.813.004-34.22-.001-1.741-.001-2.194-.457-2.194-2.159-.003-3.982-.003-7.965 0-11.948 0-1.602.433-2.03 2.069-2.03 5.755-.004 11.51-.002 17.264-.002zM23.285 34.185h32.373V24.31H23.286zM25.197 51.563c-1.121 0-2.243.02-3.364-.006-1.146-.027-1.656-.552-1.665-1.71-.015-2.004-.016-4.009.003-6.013.01-1.111.57-1.687 1.706-1.702 2.209-.028 4.418-.027 6.627 0 1.138.014 1.7.583 1.71 1.696.02 2.004.019 4.009.002 6.013-.01 1.21-.516 1.696-1.756 1.717-1.088.02-2.175.004-3.263.004zm1.903-6.32h-3.815v3.202H27.1zM25.245 80.127c-1.158 0-2.317.019-3.475-.005-1.017-.022-1.586-.573-1.597-1.582a286.506 286.506 0 0 1 0-6.233c.011-1.012.578-1.573 1.596-1.581 2.283-.02 4.566-.02 6.848 0 1.017.008 1.583.565 1.594 1.58a268.11 268.11 0 0 1 0 6.233c-.012 1.017-.574 1.56-1.593 1.582-1.124.024-2.248.005-3.373.006zM23.3 73.81v3.187h3.783v-3.187zM39.478 51.562c-1.121 0-2.244.019-3.365-.005-1.136-.025-1.654-.495-1.67-1.594-.033-2.072-.03-4.145 0-6.217.014-1.008.577-1.591 1.587-1.608 2.276-.037 4.554-.037 6.83-.002 1.06.017 1.626.625 1.637 1.676.02 2.038.02 4.077 0 6.115-.01 1.06-.566 1.602-1.654 1.629-1.121.028-2.244.006-3.365.006zm-1.925-6.32v3.205h3.835V45.24zM25.23 65.838c-1.155-.001-2.311.018-3.466-.007-1.025-.022-1.58-.56-1.59-1.57a299.58 299.58 0 0 1-.003-6.217c.01-1.006.575-1.602 1.57-1.615 2.31-.03 4.622-.03 6.932.001.947.012 1.522.599 1.534 1.541.027 2.106.029 4.212 0 6.318-.013 1.01-.57 1.522-1.613 1.544-1.121.023-2.242.005-3.364.005zm1.877-6.28h-3.795v3.136h3.795zM39.468 70.72c1.122 0 2.244-.015 3.365.003 1.072.018 1.651.567 1.663 1.623.022 2.038.02 4.077.001 6.116-.01 1.073-.569 1.65-1.628 1.659-2.276.022-4.554.02-6.83 0-1.02-.01-1.58-.546-1.595-1.571a197.75 197.75 0 0 1 .004-6.319c.016-.957.593-1.484 1.554-1.505 1.155-.024 2.31-.006 3.466-.006zm-1.901 3.09v3.193h3.807V73.81zM39.462 65.838c-1.156 0-2.312.021-3.467-.007-.985-.024-1.53-.523-1.546-1.503-.036-2.14-.03-4.28.002-6.42.014-.932.602-1.457 1.494-1.473 2.344-.042 4.69-.037 7.035-.001.933.014 1.501.625 1.513 1.572.026 2.072.024 4.145.003 6.217-.011 1.055-.583 1.592-1.67 1.611-1.121.02-2.243.004-3.364.004zm1.901-3.1v-3.186h-3.786v3.186z"/></g><path fill="#fdd335" d="M78.179 66.961c0-6.07-4.924-10.992-10.997-10.992S56.186 60.89 56.186 66.961c0 6.071 4.923 10.993 10.996 10.993S78.18 73.032 78.18 66.96z"/><path fill="#000" d="M69.553 74.463a.823.823 0 0 1-.261-.043 1.695 1.695 0 0 1-.218-.088l-.261-.13-5.88-4.66a2.113 2.113 0 0 1-.219-.13 2.832 2.832 0 0 1-.174-.305.966.966 0 0 1-.13-.305 1.428 1.428 0 0 1-.044-.348c0-.232.029-.435.087-.61.087-.174.218-.333.392-.478.145-.146.29-.247.436-.305a1.78 1.78 0 0 1 .566-.087h2.962c.842 0 1.423-.19 1.742-.566.349-.378.552-.654.61-.828h-5.967c-.175 0-.334-.029-.48-.087a1.159 1.159 0 0 1-.392-.261c-.116-.116-.203-.247-.261-.392s-.087-.305-.087-.479a1.164 1.164 0 0 1 .348-.827c.116-.116.247-.204.392-.262a.914.914 0 0 1 .48-.13l5.837.043a11.62 11.62 0 0 0-.523-.653c-.262-.377-.828-.566-1.7-.566l-3.614-.087-.393-.044c-.232-.058-.42-.188-.566-.391s-.232-.421-.261-.654v-.348a.964.964 0 0 1 .13-.305c.059-.116.131-.217.218-.304a.962.962 0 0 1 .392-.305c.146-.058.305-.087.48-.087h8.58c.175 0 .335.029.48.087.145.058.276.145.392.261.116.116.203.247.261.392s.087.305.087.479c0 .145-.029.305-.087.479a1.16 1.16 0 0 1-.261.392 1.162 1.162 0 0 1-.392.261 1.28 1.28 0 0 1-.48.087h-.696c.087.174.203.392.348.653.175.232.29.436.349.61h.218c.174 0 .29.043.348.13.087.058.189.146.305.262a1.17 1.17 0 0 1 .348.827c0 .174-.029.334-.087.479s-.145.276-.261.392a1.16 1.16 0 0 1-.392.261 1.278 1.278 0 0 1-.48.087h-.086c-.087.552-.262 1.016-.523 1.394a5.218 5.218 0 0 1-.958 1.045 4.642 4.642 0 0 1-1.568 1.045 4.672 4.672 0 0 1-1.83.348h-.13l3.615 2.83c.087.087.145.16.174.218a.683.683 0 0 1 .13.174.966.966 0 0 1 .131.305c.03.087.044.189.044.305 0 .145-.03.305-.087.479a1.161 1.161 0 0 1-.262.392 1.16 1.16 0 0 1-.392.26 1.279 1.279 0 0 1-.479.088z"/></svg>