<svg xmlns="http://www.w3.org/2000/svg" width="100" height="100" fill="none" viewBox="0 0 100 100"><path fill="#fff" d="M0 0h100v100H0z"/><path fill="#fdd335" d="M77.351 49.563c0-7.36-6.035-13.328-13.48-13.328-7.444 0-13.48 5.968-13.48 13.328s6.036 13.328 13.48 13.328c7.445 0 13.48-5.967 13.48-13.328z"/><g fill="#000"><path d="M62.546 76c-4.793-.04-12.388-2.55-17.491-7.595-5.128-5.07-7.691-11.276-7.695-18.452-.004-6.43 2.107-12.143 6.4-16.979 5.27-5.934 11.941-8.95 19.957-8.974 7.24-.022 13.472 2.548 18.558 7.543C87.42 36.597 90.015 42.872 90 50.05c-.015 7.141-2.593 13.386-7.73 18.413-5.12 5.009-10.018 7.564-19.724 7.538zm1.117-48.584c-12.651.119-22.815 10.09-22.799 22.625.016 12.447 10.253 22.543 22.846 22.497 12.706-.046 22.82-10.042 22.786-22.536-.035-12.77-10.256-22.448-22.833-22.586zM19.358 40.455c4.71 0 9.42.003 14.129-.004.505 0 1 .075 1.382.38.539.43.826.997.622 1.732-.25.897-.757 1.253-1.877 1.339-.17.013-.34.007-.509.007-9.223 0-11.55.001-20.774-.002-.39 0-.815.042-1.159-.095a2.079 2.079 0 0 1-.91-.738c-.371-.557-.322-1.186-.014-1.78.344-.664.964-.812 1.643-.836.157-.006.314-.003.47-.003h6.997zM22.816 53.45c-3.626 0-3.275.002-6.901 0-1.008 0-1.594-.461-1.809-1.423-.157-.704.252-1.631 1.003-1.849.316-.09.645-.19.968-.19 7.187-.012 10.396-.003 17.583-.016 1.124-.002 2.035.887 1.897 2.013-.08.657-.844 1.48-1.667 1.474-3.691-.022-7.383-.01-11.074-.01zM28.105 59.601c2.452 0 4.903-.002 7.354.002 1.047.002 1.527.367 1.837 1.338.21.658-.301 1.762-1.096 1.95-.36.086-.735.155-1.102.156-4.747.01-9.493.009-14.239.007-1.096 0-1.748-.534-1.985-1.547-.138-.594.425-1.847 1.409-1.884.703-.026 1.408-.02 2.112-.021 1.903-.003 3.807 0 5.71 0z"/><path d="M65.437 42.476c0 1.715.01 3.43-.007 5.144-.004.335.097.6.314.83.912.972.6 2.86-.455 3.575a3.318 3.318 0 0 1-1.444.554c-.22.033-.455.186-.619.348-3.423 3.383-6.833 6.78-10.26 10.158-.342.336-.72.647-1.245.743-1.13.207-2.118-.647-2.08-1.737.017-.505.25-.874.58-1.201 3.532-3.502 7.07-6.998 10.601-10.502.109-.107.216-.279.215-.42-.001-.71.334-1.264.74-1.808.111-.147.152-.377.152-.569.009-3.494.01-6.988.004-10.482-.001-.772.308-1.357 1.014-1.694.618-.295 1.531-.165 2.032.448.364.445.45.943.454 1.469.012 1.714.004 3.429.004 5.144z"/></g></svg>