<svg xmlns="http://www.w3.org/2000/svg" width="100" height="100" fill="none" viewBox="0 0 100 100"><path fill="#fff" d="M0 0h100v100H0z"/><path fill="#fdd335" d="M62.766 43.564c0-3.751-3.048-6.792-6.809-6.792-3.76 0-6.808 3.041-6.808 6.792s3.048 6.792 6.808 6.792 6.809-3.04 6.809-6.792z"/><g fill="#000"><path d="M10 54.175c1.312-.019 2.624-.05 3.936-.053 3.258-.008 6.517-.006 9.775-.002 1.765.002 2.387.47 2.993 2.086.078.208.495.41.757.412 2.837.03 5.676-.01 8.513.038.769.012 1.57.151 2.294.409 4.057 1.445 8.092 2.95 12.142 4.416.409.147.866.227 1.3.23 3.338.019 6.675.007 10.012.012 3.272.004 5.191 1.757 5.5 5.01.01.1.04.2.08.394.347-.086.67-.15.981-.248 5.237-1.628 10.478-3.245 15.705-4.903 1.842-.584 3.321.035 4.58 1.285 1.237 1.227 1.735 2.76 1.247 4.472-.36 1.268-1.081 2.29-2.32 2.93a13820.745 13820.745 0 0 0-30.27 15.7c-1.55.807-3.18.792-4.723.265-6.556-2.24-13.073-4.59-19.617-6.863-.774-.268-1.624-.35-2.448-.43-.729-.07-1.472.017-2.205-.024-.87-.048-1.512-.033-1.819 1.092-.307 1.126-1.393 1.456-2.539 1.454-4.283-.01-8.566-.004-12.849-.004-.341 0-.683.01-1.024.015V79.35h14.224c.022-.271.057-.5.057-.73.002-7.102-.006-14.203.013-21.305.001-.637-.22-.79-.82-.787-4.492.02-8.984.008-13.475.006zm33.303 20.072c.016-.292.01-.5.041-.702.38-2.491 2.454-4.236 5.092-4.245 4.467-.015 8.934-.003 13.4-.008.34 0 .69 0 1.016-.08 1.27-.317 2.05-1.47 1.917-2.786-.126-1.261-1.183-2.225-2.526-2.232-3.547-.016-7.095.01-10.642-.021a5.67 5.67 0 0 1-1.836-.324c-4.127-1.483-8.238-3.009-12.36-4.506-.387-.141-.811-.252-1.219-.255-2.89-.021-5.78.004-8.67-.023-.614-.006-.817.166-.811.796.028 3.382.013 6.764.014 10.146 0 2.045.015 4.09-.01 6.134-.007.545.16.735.716.717 1.155-.036 2.315-.056 3.467.006.746.04 1.519.138 2.219.382 6.565 2.293 13.116 4.626 19.676 6.934.413.145.865.179 1.299.262 1.421.275 2.518-.51 3.677-1.112 9.505-4.933 19.013-9.86 28.519-14.794 1.11-.577 1.541-1.69 1.098-2.772-.478-1.167-1.644-1.765-2.79-1.408a10169.83 10169.83 0 0 0-18.183 5.681c-.294.093-.606.219-.833.416-1.112.966-2.408 1.32-3.856 1.315-4.414-.015-8.829-.008-13.243-.004-1.471.002-2.367.692-2.75 2.09-.035.125-.076.248-.12.393zM67.63 42.748v2.384h-2.394c0-.664-.02-1.356.02-2.044.007-.12.265-.315.415-.324.621-.037 1.247-.016 1.96-.016zM46.474 42.749v2.396h-2.37c0-.683-.026-1.352.022-2.016.01-.136.286-.35.451-.363.593-.045 1.191-.017 1.897-.017z"/><path d="M16.54 76.758h-2.33V74.38h2.33zM21.616 74.374v2.42c-.668 0-1.314.022-1.955-.016-.142-.008-.38-.219-.388-.348-.04-.67-.018-1.342-.018-2.056zM57.682 49.739a.606.606 0 0 1-.192-.032 1.247 1.247 0 0 1-.16-.064l-.193-.096-4.323-3.418a1.56 1.56 0 0 1-.16-.096 2.089 2.089 0 0 1-.129-.224.708.708 0 0 1-.096-.223 1.046 1.046 0 0 1-.032-.256c0-.17.022-.32.064-.447.064-.128.16-.245.289-.352a.976.976 0 0 1 .32-.223c.128-.043.267-.064.416-.064h2.178c.62 0 1.046-.139 1.281-.416.256-.277.406-.479.449-.607h-4.388a.942.942 0 0 1-.352-.064c-.107-.042-.203-.106-.289-.191s-.15-.181-.192-.288-.064-.224-.064-.351a.853.853 0 0 1 .256-.607.853.853 0 0 1 .289-.192.673.673 0 0 1 .352-.096l4.291.032a8.525 8.525 0 0 0-.384-.48c-.192-.276-.608-.415-1.249-.415l-2.658-.063-.288-.032a.711.711 0 0 1-.417-.288 1.035 1.035 0 0 1-.192-.48v-.255a.71.71 0 0 1 .096-.223.854.854 0 0 1 .16-.224.708.708 0 0 1 .289-.224.942.942 0 0 1 .352-.064h6.31c.127 0 .245.022.351.064.107.043.203.107.289.192s.15.181.192.288.064.223.064.35c0 .107-.021.225-.064.352-.043.107-.107.203-.192.288s-.182.149-.289.192a.943.943 0 0 1-.352.064h-.512c.064.127.15.287.256.479.128.17.213.32.256.447h.16c.128 0 .214.032.256.096.065.043.14.106.225.192s.15.18.192.287.064.213.064.32a.86.86 0 0 1-.256.639.854.854 0 0 1-.289.191.943.943 0 0 1-.352.064h-.064c-.064.405-.192.746-.384 1.023-.171.255-.406.51-.705.766-.341.341-.726.597-1.153.767a3.44 3.44 0 0 1-1.345.256h-.096l2.658 2.077a.688.688 0 0 1 .128.16.502.502 0 0 1 .096.127.708.708 0 0 1 .096.224.705.705 0 0 1 .033.223c0 .107-.022.224-.065.352a.85.85 0 0 1-.192.287.854.854 0 0 1-.288.192.942.942 0 0 1-.352.064z"/><path fill-rule="evenodd" d="M58.156 13.213A7.036 7.036 0 0 0 56.448 13h-.534l-.533.106c-.427.071-.854.178-1.28.32-.428.142-.819.284-1.175.426l-.427.213-.213-.107-.427-.106a6.057 6.057 0 0 0-1.92-.32 4.629 4.629 0 0 0-1.708.107l-.427.106-.32.213c-.285.071-.534.178-.748.32l-.64.425-.213.32-.854.639c-.214.212-.463.39-.747.532-.214.07-.498.142-.854.213-.925.284-1.53.887-1.814 1.81-.214.922 0 1.703.64 2.342.854.851 1.672 1.81 2.455 2.874s1.53 2.236 2.24 3.513c-1.778.71-3.699 2.236-5.762 4.578a23.139 23.139 0 0 0-4.482 7.666l-.214.426a.942.942 0 0 1-.106.425 21.933 21.933 0 0 0-.854 6.069c0 1.987.178 4.223.533 6.707 0 .07.036.426.107 1.065.142.638.25 1.064.32 1.277v.268c.395.004.79.009 1.184.015.455.008.922.06 1.378.154-.058-1.272-.342-3.156-.854-5.654-.64-3.122-.356-6.423.854-9.9s2.917-6.14 5.122-7.985c2.206-1.917 3.629-2.875 4.269-2.875.711 0 1.707.284 2.988.852 1.28.497 2.882.745 4.803.745 1.992 0 3.592-.248 4.802-.745 1.28-.568 2.312-.852 3.095-.852s2.241.852 4.375 2.555c2.206 1.704 3.878 4.472 5.016 8.304 1.139 3.833 1.352 7.31.64 10.434-.64 3.123-.96 5.11-.96 5.962 0 .78.285 1.561.854 2.342.64.78.605 1.632-.107 2.555-.284.355-.605.603-.96.745l-1.068.213h-1.387a6.008 6.008 0 0 0-1.174-.107h-.427c-.213 0-.427.036-.64.107h-.545c.5.626.852 1.412 1.044 2.35a3.86 3.86 0 0 1 .248-.008c.356 0 .783.036 1.28.107h.534c1.139.07 2.064 0 2.775-.213.783-.213 1.53-.746 2.241-1.597a3.864 3.864 0 0 0 .854-1.704c.213-.638.284-1.277.213-1.916a3.796 3.796 0 0 0-.32-.958c-.142-.355-.32-.78-.533-1.278l-.427-.745.106-.213.427-2.448.214-1.172c.427-2.342.604-4.577.533-6.707-.07-2.129-.427-4.294-1.067-6.494-.925-3.194-2.419-5.926-4.482-8.197-2.063-2.343-4.02-3.762-5.87-4.259l.32-.639a25.321 25.321 0 0 1 1.815-2.661 22.887 22.887 0 0 1 2.454-2.875c.712-.71.925-1.526.64-2.448-.213-.923-.782-1.526-1.707-1.81a10.333 10.333 0 0 1-.747-.213 3.493 3.493 0 0 0-.534-.426l-.96-.958a5.33 5.33 0 0 0-1.6-.958c-.499-.213-1.104-.32-1.815-.32h-.534l-.533.107c-.356 0-.712.07-1.068.213a7.575 7.575 0 0 0-.96.32l-.534-.32a6.29 6.29 0 0 0-1.6-.64zM53.673 16.3c.427-.213 1.281-.532 1.281-.532s2.327-.165 2.988 0c.427.142.818.355 1.174.639.356.284.747.603 1.174.958.285-.426.676-.745 1.174-.958s1.138-.32 1.92-.32c1.14 0 1.85.355 2.135 1.065.356.71 1.317 1.278 2.882 1.703-1.28 1.278-2.384 2.555-3.309 3.833-.924 1.278-1.636 2.52-2.134 3.726a20.71 20.71 0 0 1-2.775.852c-.925.213-1.92.32-2.988.32l-.747.106-.96-.107c-.996 0-2.028-.106-3.095-.32a23.59 23.59 0 0 1-2.988-.85c-.783-1.562-1.637-2.946-2.562-4.153a22.273 22.273 0 0 0-2.775-3.407c1.495-.425 2.455-.922 2.882-1.49.427-.639 1.067-1.065 1.92-1.278.143-.07.25-.106.321-.106h.747c.427 0 .854.106 1.28.32.499.141.961.39 1.388.745a9.732 9.732 0 0 1 1.067-.746z" clip-rule="evenodd"/></g></svg>