<svg xmlns="http://www.w3.org/2000/svg" width="100" height="100" fill="none" viewBox="0 0 100 100"><path fill="#fff" d="M0 0h100v100H0z"/><path fill="#fdd335" d="M63.711 37.742c0-6.25-4.985-11.319-11.135-11.319s-11.135 5.068-11.135 11.32c0 6.25 4.986 11.319 11.135 11.319s11.135-5.068 11.135-11.32z"/><g fill="#000"><path d="M67.98 68.503c2.285-.962 4.436-1.913 6.62-2.776 3.136-1.24 6.237-2.639 9.741-2.344 3.314.28 5.904 3.185 5.64 6.488-.169 2.134-1.48 3.606-3.157 4.653a105.542 105.542 0 0 1-7.484 4.28c-5.818 3.001-11.7 5.87-17.524 8.859-3.842 1.971-7.864 2.55-12.132 2.271-5.422-.354-10.707-1.385-15.96-2.713-1.332-.337-2.71-.485-4.07-.708-2.032-.333-3.655.575-5.21 1.748-2.493 1.88-3.037 1.9-5.516-.002-3.896-2.987-6.061-7.155-7.554-11.747a20.18 20.18 0 0 1-.916-8.187c.15-1.596.507-1.818 1.99-2.337 4.209-1.473 8.385-3.041 12.57-4.581 4.994-1.838 10.116-2.908 15.445-2.406 1.53.144 3.113.481 4.515 1.097 3.97 1.743 7.978 1.833 12.155 1.018 1.784-.348 3.7-.401 5.501-.16 3.2.432 5.28 3.102 5.346 6.402.006.326 0 .651 0 1.145zm-17.814 18.4c5.339 0 6.638-.24 10.065-1.96a2101.561 2101.561 0 0 0 21.195-10.771c1.51-.779 2.98-1.702 4.302-2.771 1.788-1.446 1.624-3.142-.297-4.406-.434-.285-1.04-.526-1.526-.464-1.64.21-3.358.315-4.875.909-5.065 1.985-10.046 4.192-15.08 6.26-2.414.99-4.824 2.067-7.33 2.73-3.079.817-6.203.124-9.273-.456-.84-.158-1.154-.896-1.059-1.698.09-.76.558-1.34 1.362-1.318.864.023 1.735.15 2.582.335 4.712 1.027 8.887-.435 12.805-2.906 1.627-1.026 2.097-2.477 1.634-4.07-.452-1.558-1.677-2.497-3.592-2.446a28.22 28.22 0 0 0-4.955.546c-3.577.738-7.033.541-10.456-.794-1.583-.617-3.218-1.234-4.882-1.469-4.769-.671-9.395.289-13.886 1.844-4.144 1.434-8.212 3.094-12.335 4.593-.764.278-1.069.59-1.07 1.456-.01 3.763 1.134 7.182 2.883 10.423 1.125 2.085 2.555 3.932 4.478 5.343.582.427 1.012.477 1.712.025 1.389-.898 2.847-1.877 4.41-2.26 2.733-.67 5.482.038 8.15.77 5.414 1.486 10.898 2.449 15.038 2.555z"/><path d="M21.303 52.755c1.13-1.617 2.255-3.236 3.393-4.847.209-.297.425-.743.704-.802.588-.127 1.352-.258 1.792.021.372.236.574 1.071.512 1.6-.062.53-.512 1.033-.846 1.51a708.665 708.665 0 0 1-5.156 7.265c-.914 1.267-1.606 1.363-2.833.48-2.635-1.896-5.271-3.792-7.902-5.694-.966-.698-1.225-1.596-.7-2.353.574-.828 1.473-.93 2.48-.22 1.401.987 2.774 2.016 4.165 3.018.282.203.59.368 1.104.685-.106-.7-.17-1.158-.245-1.613-1.419-8.48.018-16.446 4.2-23.904 3.834-6.836 9.365-11.813 16.44-14.898 8.296-3.617 16.789-3.993 25.375-.984 8.664 3.038 15.23 8.685 19.518 16.85 5.024 9.564 5.58 19.556 1.87 29.756-.391 1.077-1.242 1.542-2.106 1.191-.897-.365-1.192-1.271-.751-2.434 1.428-3.76 2.21-7.662 2.119-11.684-.227-10.012-3.971-18.374-11.512-24.933-9.638-8.382-24.095-10.027-35.288-3.936-9.82 5.343-15.43 13.725-17.073 24.848-.54 3.657-.341 7.345.74 11.078z"/><path d="M52.382 56.816c-10.204-.029-18.357-8.432-18.335-18.896.022-10.171 8.43-18.615 18.483-18.56 10.142.055 18.37 8.503 18.324 18.811-.047 10.34-8.303 18.673-18.472 18.645zm15.405-18.66c.084-8.478-6.827-15.592-15.223-15.67-8.448-.08-15.324 6.86-15.417 15.56-.09 8.498 6.693 15.53 15.092 15.645 8.512.116 15.463-6.83 15.549-15.535z"/><path d="M54.574 46.273c-.087 0-.174-.014-.26-.044s-.16-.059-.218-.088l-.261-.133-5.872-4.73a2.115 2.115 0 0 1-.218-.133 2.9 2.9 0 0 1-.174-.31c-.058-.088-.101-.191-.13-.31s-.044-.235-.044-.353c0-.236.03-.442.087-.62.087-.176.218-.338.392-.486.145-.147.29-.25.435-.309a1.75 1.75 0 0 1 .565-.088h2.958c.84 0 1.42-.192 1.74-.575.348-.384.55-.664.609-.84h-5.96c-.173 0-.333-.03-.478-.089-.145-.059-.275-.147-.391-.265s-.203-.25-.261-.398a1.32 1.32 0 0 1-.087-.486 1.201 1.201 0 0 1 .348-.84c.116-.118.246-.207.391-.266a.9.9 0 0 1 .479-.132l5.828.044c-.058-.089-.232-.31-.522-.663-.26-.384-.826-.575-1.696-.575l-3.61-.089-.392-.044a.966.966 0 0 1-.565-.398 1.448 1.448 0 0 1-.261-.663v-.354a.993.993 0 0 1 .13-.31 1.18 1.18 0 0 1 .218-.309.964.964 0 0 1 .391-.31c.145-.058.305-.088.479-.088h8.568c.174 0 .334.03.479.089.145.059.275.147.391.265.116.118.203.25.261.398s.087.31.087.486c0 .148-.029.31-.087.487-.058.147-.145.28-.26.398a1.156 1.156 0 0 1-.392.265 1.257 1.257 0 0 1-.479.088h-.696c.087.177.203.398.348.664.174.235.29.442.348.619h.218c.174 0 .29.044.348.132.087.06.188.148.304.265a1.198 1.198 0 0 1 .348.84c0 .177-.029.34-.087.487s-.145.28-.26.398-.247.206-.392.265a1.257 1.257 0 0 1-.479.089h-.087c-.087.56-.26 1.031-.522 1.414a5.272 5.272 0 0 1-.956 1.062 4.63 4.63 0 0 1-1.566 1.06c-.551.237-1.16.355-1.827.355h-.13l3.61 2.874a.948.948 0 0 1 .173.22.692.692 0 0 1 .13.177.99.99 0 0 1 .131.31.995.995 0 0 1 .044.31c0 .147-.03.309-.087.486-.058.147-.145.28-.261.398a1.156 1.156 0 0 1-.87.353z"/></g></svg>