<svg xmlns="http://www.w3.org/2000/svg" width="100" height="100" fill="none" viewBox="0 0 100 100"><path fill="#fff" d="M0 0h100v100H0z"/><g fill="#000"><path d="M63.071 51.998c3.494 1.027 4.947 4.191 4.138 7.192.6.241 1.239.412 1.79.734 1.925 1.124 2.769 2.841 2.523 5.065-.055.493.016.706.53.881 3.633 1.24 5.044 5.828 2.575 8.753a148.176 148.176 0 0 1-7.89 8.653c-3.057 3.089-6.82 5.02-11.055 5.954-4.862 1.072-9.639.857-14.224-1.237-4.981-2.274-8.48-6.001-10.493-11.13-1.347-3.431-1.878-7.016-1.77-10.68.095-3.195-.868-6.03-2.52-8.685-.496-.797-1.028-1.572-1.528-2.367-1.556-2.476-1.29-5.332.66-7.208 1.987-1.91 4.885-2.025 6.994-.24 1.747 1.48 3.162 3.241 4.305 5.232.434.757.89 1.508 1.415 2.202.818 1.082 1.45 1.25 2.73.766 1.611-.61 2.938-1.688 4.25-2.765 4.506-3.699 8.596-7.843 12.637-12.037 1.135-1.178 2.25-2.376 3.375-3.562 2.167-2.282 5.474-2.535 7.766-.594 2.244 1.9 2.723 5.257.978 7.57-.77 1.021-1.74 1.893-2.637 2.814-1.447 1.483-2.911 2.95-4.366 4.425-.071.072-.118.169-.183.264zm4.876 26.289c-.14-.07-.23-.13-.33-.163-2.347-.81-3.743-2.715-3.804-5.242-.01-.383-.102-.513-.499-.567-3.173-.43-5.154-2.923-4.847-6.107.048-.5-.117-.636-.56-.734-1.433-.315-2.521-1.17-3.297-2.393-1.488-2.343-1.116-5.066.925-7.119 4.076-4.101 8.16-8.196 12.227-12.308 1.377-1.392 1.42-3.337.149-4.576-1.337-1.305-3.2-1.248-4.586.166-3.144 3.21-6.244 6.466-9.425 9.638-2.766 2.756-5.62 5.431-8.83 7.663-1.128.785-2.41 1.382-3.688 1.898-.526.212-.658.303-.549.858.428 2.163.011 4.18-1.2 6.018-.45.682-1.165.862-1.743.485-.597-.391-.73-1.07-.35-1.799.061-.116.13-.228.193-.342 1.206-2.164 1.094-4.547-.621-6.442-.753-.832-1.364-1.812-1.944-2.782-1.074-1.795-2.282-3.466-3.892-4.812-1.08-.9-2.316-.99-3.367-.259-1.118.78-1.609 2.061-1.12 3.343.316.825.795 1.602 1.292 2.338 2.306 3.415 3.735 7.074 3.573 11.304-.112 2.924.258 5.832 1.247 8.6.51 1.43 1.008 3.004 1.97 4.107 2.485 2.847 6.427 3.856 9.785.924.944-.823 1.723-1.84 2.566-2.778.57-.634 1.262-.74 1.836-.255.56.474.603 1.148.095 1.81-.398.52-.794 1.046-1.231 1.53-1.562 1.728-3.34 3.14-5.661 3.667-.723.165-1.474.205-2.246.306 7.627 5.343 20.482 3.978 27.931-5.977zM61.839 54.39a2.82 2.82 0 0 0-2.063.834c-.916.901-1.814 1.82-2.713 2.739-.648.663-.927 1.476-.835 2.393.123 1.24.789 2.11 1.917 2.595 1.014.437 1.942.3 2.748-.512.26-.26.586-.451.861-.697.84-.753 1.765-1.437 2.48-2.296.802-.961.978-2.157.387-3.324-.566-1.12-1.524-1.698-2.782-1.732zm2.043 15.574c.404-.177.894-.261 1.197-.547a84.608 84.608 0 0 0 3.411-3.434c.852-.903.82-2.477-.005-3.367-.908-.98-2.458-1.162-3.427-.385a254.3 254.3 0 0 0-3.087 2.525c-.962.797-1.28 1.96-.872 3.125.42 1.193 1.487 1.961 2.783 2.083zm9.604 1.308-.162-.075c.003-1.704-1.323-3.112-3.008-3.164a.857.857 0 0 0-.57.21 86.03 86.03 0 0 0-2.62 2.638c-1.245 1.32-1.131 3.14.237 4.334.947.827 2.568.919 3.282.16.67-.714 1.373-1.41 1.942-2.202.402-.558.606-1.262.899-1.901z"/><path d="M50.117 90a20.66 20.66 0 0 1-8.712-1.887c-4.984-2.275-8.537-6.044-10.561-11.202-1.294-3.295-1.892-6.906-1.779-10.732.088-2.95-.73-5.767-2.5-8.612-.26-.419-.536-.84-.803-1.246-.244-.372-.488-.743-.724-1.12-1.6-2.544-1.333-5.44.68-7.374 2.055-1.976 5.003-2.076 7.168-.244 1.692 1.432 3.15 3.204 4.334 5.266.386.674.855 1.46 1.406 2.188.775 1.025 1.354 1.187 2.58.723 1.615-.611 2.936-1.696 4.213-2.745 4.58-3.76 8.75-8.003 12.626-12.026.719-.745 1.43-1.5 2.14-2.253.41-.437.822-.873 1.235-1.308 2.2-2.317 5.614-2.577 7.945-.605 2.342 1.983 2.78 5.388.997 7.751-.58.768-1.277 1.46-1.953 2.13-.233.23-.466.462-.695.697-.918.94-1.842 1.874-2.767 2.808-.533.539-1.067 1.077-1.599 1.617a.608.608 0 0 0-.073.096c3.188 1.02 4.89 4.004 4.091 7.188.153.059.307.114.462.17.418.149.85.303 1.238.53 1.97 1.15 2.84 2.898 2.587 5.194-.05.448 0 .59.443.742a5.78 5.78 0 0 1 3.694 3.953c.494 1.798.107 3.623-1.062 5.008a148.635 148.635 0 0 1-7.897 8.662c-2.972 3.002-6.713 5.016-11.12 5.989-1.938.427-3.799.642-5.595.642zM29.433 46.54c-1.258 0-2.512.495-3.535 1.477-1.918 1.845-2.17 4.61-.64 7.044.236.375.48.745.722 1.115.268.408.545.83.807 1.252 1.798 2.89 2.629 5.756 2.54 8.759-.113 3.79.48 7.366 1.76 10.628 1.999 5.092 5.506 8.813 10.426 11.059 4.32 1.972 8.946 2.374 14.142 1.228 4.357-.962 8.055-2.953 10.99-5.918 2.633-2.66 5.286-5.57 7.883-8.647 1.112-1.317 1.48-3.055 1.009-4.767a5.516 5.516 0 0 0-3.526-3.775c-.6-.204-.677-.492-.619-1.02.242-2.183-.585-3.844-2.457-4.937-.368-.214-.789-.365-1.195-.51-.194-.07-.388-.139-.579-.215l-.108-.044.03-.113c.846-3.136-.856-6.094-4.047-7.032l-.174-.05.103-.15c.02-.029.038-.059.055-.087.041-.066.084-.136.143-.195.532-.54 1.065-1.079 1.599-1.617.924-.934 1.848-1.867 2.766-2.808.23-.235.463-.467.698-.7.668-.662 1.36-1.348 1.928-2.1 1.67-2.215 1.24-5.53-.958-7.391-2.222-1.882-5.484-1.63-7.587.585-.412.434-.823.87-1.235 1.307-.71.755-1.422 1.51-2.14 2.256-3.883 4.029-8.058 8.277-12.65 12.047-1.293 1.062-2.63 2.16-4.286 2.786-1.335.506-2.035.31-2.88-.81-.56-.74-1.034-1.535-1.424-2.215-1.169-2.036-2.607-3.784-4.276-5.197-.983-.832-2.136-1.246-3.285-1.246zm20.903 40.937c-3.837 0-7.492-1.072-10.395-3.106l-.277-.194.335-.044c.246-.032.49-.058.731-.084.523-.056 1.017-.11 1.503-.22 1.988-.451 3.765-1.604 5.593-3.627.401-.444.774-.931 1.135-1.403l.09-.118c.462-.604.435-1.198-.076-1.63-.51-.433-1.13-.342-1.654.242-.24.267-.473.539-.707.811-.584.68-1.188 1.383-1.87 1.979-1.604 1.4-3.446 2-5.324 1.736-1.7-.24-3.35-1.189-4.645-2.673-.89-1.02-1.38-2.408-1.854-3.75l-.141-.4c-.95-2.66-1.373-5.57-1.255-8.649.148-3.852-.98-7.42-3.55-11.225-.457-.676-.97-1.486-1.305-2.365-.493-1.288-.035-2.66 1.166-3.498 1.095-.762 2.412-.663 3.524.266 1.415 1.182 2.624 2.676 3.921 4.845.564.942 1.177 1.932 1.929 2.762 1.696 1.874 1.929 4.278.638 6.594l-.072.128c-.04.07-.081.14-.119.212-.348.666-.234 1.274.306 1.627.53.346 1.157.166 1.562-.447 1.2-1.822 1.598-3.813 1.181-5.92-.126-.64.061-.776.629-1.005.973-.393 2.412-1.015 3.663-1.885 3.308-2.3 6.19-5.035 8.811-7.648 2.066-2.06 4.132-4.19 6.13-6.25a899.306 899.306 0 0 1 3.294-3.387c1.422-1.451 3.384-1.52 4.77-.168.611.597.952 1.38.96 2.21.008.916-.385 1.823-1.107 2.553a4241.898 4241.898 0 0 1-8.704 8.765l-3.524 3.544c-2.004 2.016-2.35 4.681-.906 6.955.797 1.256 1.879 2.041 3.214 2.335.474.104.72.275.662.875-.299 3.093 1.648 5.545 4.734 5.964.447.06.602.236.613.695.06 2.46 1.413 4.327 3.715 5.12.076.026.143.062.22.104l.126.066.14.07-.094.127c-3.49 4.664-8.455 7.78-13.98 8.775a21.118 21.118 0 0 1-3.736.336zm-9.958-3.125c3.746 2.5 8.697 3.42 13.647 2.53 5.41-.974 10.28-4.008 13.725-8.55a1.218 1.218 0 0 0-.175-.084c-2.411-.831-3.83-2.786-3.892-5.363-.008-.33-.066-.397-.386-.44-3.233-.439-5.272-3.009-4.96-6.25.04-.419-.066-.507-.457-.593-1.406-.31-2.543-1.134-3.38-2.45-1.513-2.384-1.153-5.175.943-7.283l3.524-3.543c2.856-2.87 5.808-5.838 8.703-8.765.672-.68 1.038-1.52 1.03-2.366a2.85 2.85 0 0 0-.88-2.023c-1.296-1.266-3.065-1.2-4.4.164-1.103 1.125-2.198 2.255-3.295 3.386-1.998 2.06-4.065 4.192-6.133 6.253-2.63 2.621-5.521 5.366-8.846 7.677-1.272.885-2.73 1.516-3.714 1.913-.501.202-.562.246-.47.71.43 2.177.02 4.235-1.22 6.116-.483.732-1.273.947-1.922.522-.655-.428-.806-1.183-.395-1.97.04-.074.081-.148.123-.22l.071-.126c1.233-2.211 1.013-4.503-.603-6.288-.768-.849-1.39-1.85-1.96-2.804-1.28-2.142-2.473-3.616-3.863-4.778-1.032-.862-2.202-.954-3.209-.252-1.115.777-1.526 1.999-1.071 3.187.326.854.829 1.648 1.277 2.312 2.567 3.801 3.744 7.525 3.596 11.383-.116 3.046.3 5.922 1.24 8.55l.14.4c.467 1.32.948 2.683 1.805 3.665 2.291 2.626 6.148 3.926 9.6.912.669-.583 1.266-1.279 1.844-1.952.235-.274.47-.548.71-.815.622-.692 1.395-.795 2.018-.268.614.52.658 1.282.115 1.992l-.09.118c-.364.475-.74.967-1.149 1.419-1.866 2.065-3.686 3.243-5.729 3.707-.5.114-1.002.168-1.532.224l-.38.043zm28.854-8.323c-.68 0-1.411-.241-1.954-.715-.697-.61-1.104-1.403-1.144-2.237-.04-.819.279-1.63.897-2.287a86.567 86.567 0 0 1 2.626-2.642.976.976 0 0 1 .664-.247c1.733.054 3.094 1.458 3.134 3.212l.205.094-.055.12c-.09.195-.17.396-.25.598-.184.455-.373.926-.66 1.325-.476.66-1.048 1.262-1.602 1.843l-.352.372c-.356.378-.913.564-1.51.564zm1.066-7.865a.733.733 0 0 0-.46.173 86.365 86.365 0 0 0-2.617 2.634c-.57.604-.862 1.347-.826 2.094.037.76.411 1.489 1.055 2.05.903.79 2.438.873 3.1.17l.354-.373c.548-.576 1.114-1.17 1.579-1.816.268-.373.452-.828.628-1.27.067-.163.132-.328.203-.488l-.12-.056v-.084c.003-1.65-1.263-2.983-2.882-3.034h-.014zm-6.394 1.934-.034-.003c-1.38-.13-2.461-.941-2.893-2.17-.428-1.22-.087-2.443.912-3.27.907-.752 1.983-1.64 3.089-2.527 1.022-.82 2.64-.642 3.603.399.885.954.888 2.611.005 3.546a84.995 84.995 0 0 1-3.417 3.44c-.228.215-.541.323-.845.426a5.2 5.2 0 0 0-.389.145zm2.597-8.224c-.493 0-.974.15-1.36.46-1.105.886-2.18 1.773-3.085 2.523-.911.755-1.223 1.87-.832 2.98.393 1.12 1.378 1.863 2.638 1.993.123-.052.253-.096.378-.14.29-.099.563-.192.75-.368a84.71 84.71 0 0 0 3.406-3.43c.793-.84.79-2.328-.006-3.186a2.599 2.599 0 0 0-1.889-.832zm-7.269 1.453c-.363 0-.742-.085-1.138-.255-1.18-.508-1.87-1.442-1.995-2.702-.096-.969.197-1.81.872-2.5l.039-.038c.87-.891 1.771-1.813 2.675-2.701a2.941 2.941 0 0 1 2.13-.872h.028c1.315.036 2.317.66 2.895 1.804.597 1.18.45 2.444-.403 3.468-.52.624-1.156 1.163-1.77 1.684-.243.207-.487.413-.723.625-.125.112-.26.213-.391.31-.168.125-.326.243-.465.382-.527.53-1.113.795-1.754.795zm2.584-8.806a2.69 2.69 0 0 0-1.948.797c-.901.887-1.801 1.808-2.672 2.698l-.038.039c-.618.632-.887 1.402-.799 2.288.117 1.176.735 2.012 1.838 2.487 1.001.431 1.853.272 2.605-.484.152-.153.326-.283.494-.408.126-.094.256-.191.373-.295.238-.213.484-.421.729-.63.605-.513 1.231-1.045 1.738-1.652.794-.952.925-2.081.37-3.18-.54-1.067-1.438-1.626-2.669-1.66zM37.369 40.318c-.463-.294-.87-.46-1.158-.749-3.54-3.546-7.063-7.11-10.591-10.669-.533-.537-.61-1.25-.177-1.763.47-.557 1.213-.641 1.79-.089 1.32 1.266 2.594 2.58 3.884 3.878 2.137 2.146 4.273 4.294 6.407 6.443.26.263.607.503.73.824.148.39.238.909.098 1.273-.127.332-.594.533-.983.851z"/><path d="m37.378 40.48-.08-.051a9.426 9.426 0 0 0-.44-.259c-.288-.163-.537-.303-.74-.507-2.605-2.61-5.244-5.272-7.795-7.848l-2.797-2.821c-.58-.585-.655-1.383-.184-1.942.261-.308.603-.488.965-.508.366-.015.715.123 1.015.41.968.927 1.926 1.897 2.853 2.835l1.034 1.044c2.137 2.146 4.272 4.294 6.406 6.443.067.068.14.133.212.2.22.198.446.404.548.67.073.191.295.854.098 1.367-.1.266-.367.446-.649.637a5.136 5.136 0 0 0-.373.27zM26.372 26.805l-.051.001c-.29.015-.566.163-.779.415-.386.457-.318 1.094.17 1.586l2.796 2.821c2.551 2.575 5.19 5.238 7.795 7.847.178.179.412.311.684.464.118.068.243.138.372.217a6.27 6.27 0 0 1 .32-.225c.256-.175.479-.325.55-.513.13-.339.034-.83-.098-1.178-.08-.208-.283-.392-.48-.57-.076-.07-.151-.138-.221-.209a6277.07 6277.07 0 0 0-6.406-6.443l-1.035-1.045a150.78 150.78 0 0 0-2.848-2.83c-.231-.222-.496-.338-.77-.338zM40.436 10.131c.668.005 1.057.382 1.276 1.258.554 2.226 1.101 4.454 1.655 6.68.613 2.46 1.227 4.92 1.845 7.377.292 1.165.043 1.839-.766 2.04-.812.202-1.362-.27-1.645-1.41-1.177-4.749-2.355-9.499-3.531-14.25-.234-.945.291-1.702 1.166-1.695z"/><path d="M44.105 27.662c-.538 0-1.126-.326-1.43-1.552L41.6 21.773l-2.456-9.913c-.129-.521-.044-1.022.233-1.375.247-.316.619-.489 1.061-.485.736.006 1.168.425 1.401 1.358.29 1.163.578 2.327.866 3.491l.79 3.19c.612 2.459 1.227 4.918 1.844 7.376.183.73.162 1.27-.066 1.652-.163.272-.43.456-.795.547-.118.03-.244.048-.373.048zm-3.68-17.399c-.35 0-.648.137-.843.384-.226.29-.293.708-.184 1.149l2.456 9.913 1.075 4.337c.264 1.066.75 1.495 1.487 1.313.299-.074.506-.214.633-.427.188-.314.2-.804.037-1.453a3516.452 3516.452 0 0 1-2.635-10.567l-.865-3.49c-.201-.807-.545-1.154-1.15-1.159zM60.79 25.428c0 2.498.002 4.995-.002 7.493 0 .559-.16 1.03-.72 1.286-.47.215-.97.199-1.263-.173a2.26 2.26 0 0 1-.46-1.285c-.033-4.119-.02-8.237-.02-12.356V18.29c-.001-1.164.444-1.802 1.246-1.783.8.02 1.22.624 1.22 1.758v7.163z"/><path d="M59.482 34.477a.963.963 0 0 1-.78-.361 2.39 2.39 0 0 1-.488-1.366c-.026-3.188-.024-6.43-.022-9.565l.002-4.894c0-.731.165-1.265.494-1.588.23-.225.525-.332.885-.327.616.015 1.349.355 1.349 1.89v7.294h-.002v1.867c0 1.831 0 3.663-.002 5.494 0 .71-.254 1.157-.797 1.406-.22.101-.438.15-.639.15zm.053-17.838a.911.911 0 0 0-.665.252c-.272.268-.416.751-.415 1.4l-.002 4.894c-.002 3.134-.004 6.375.022 9.563.003.396.177.88.431 1.204.232.295.646.346 1.106.135.445-.203.644-.563.644-1.167.003-1.831.003-3.663.002-5.494v-2.13h.002v-7.031c0-1.061-.368-1.608-1.093-1.626h-.032z"/></g><path fill="#fdd335" d="M24.671 15.29c.734-.43 1.57-.664 1.939-1.213.37-.553.273-1.42.396-2.252.659.54 1.164 1.218 1.812 1.409.626.183 1.398-.137 2.189-.247-.077.214-.105.415-.208.561-.725 1.027-.71 2.013.103 2.987.121.145.162.358.266.6-.82-.053-1.639-.319-2.274-.084-.594.22-.993.97-1.62 1.64-.146-.691-.298-1.154-.33-1.625-.04-.6-.326-.91-.873-1.1-.45-.158-.865-.413-1.4-.675z"/><path fill="#fdd335" d="m27.184 19.012-.062-.29c-.048-.228-.097-.432-.142-.618-.09-.376-.17-.7-.191-1.028-.035-.512-.25-.783-.77-.965-.316-.11-.618-.269-.937-.436-.151-.079-.31-.162-.48-.246l-.258-.126.248-.146c.236-.14.48-.257.715-.37.486-.234.944-.456 1.173-.797.231-.345.264-.854.299-1.394.017-.259.034-.527.073-.794l.04-.27.212.173c.211.173.405.358.593.537.388.371.756.722 1.164.842.392.115.872.008 1.38-.106.241-.054.49-.11.744-.145l.254-.035-.087.24c-.024.068-.043.135-.062.198-.042.145-.081.282-.166.402-.69.978-.658 1.893.096 2.798.099.118.15.262.205.415.025.07.051.144.085.222l.1.232-.253-.016a9.757 9.757 0 0 1-.77-.09c-.534-.078-1.039-.151-1.44-.003-.362.134-.66.507-1.004.94-.172.216-.35.44-.556.66zm-2.182-3.728.224.116c.322.17.601.315.896.419.633.222.934.603.976 1.236.02.302.093.6.183.976l.079.33c.119-.14.231-.281.34-.419.374-.469.696-.873 1.14-1.038.474-.175 1.017-.096 1.591-.013.165.023.334.048.502.066v-.003c-.048-.131-.088-.245-.151-.32-.845-1.014-.882-2.082-.111-3.176a.954.954 0 0 0 .112-.278c-.16.03-.32.065-.475.1-.548.123-1.067.239-1.535.1-.48-.14-.874-.516-1.291-.915a15.868 15.868 0 0 0-.357-.334c-.016.162-.027.325-.037.485-.038.582-.073 1.132-.35 1.546-.276.411-.772.65-1.297.903-.145.07-.293.142-.439.219zM45.747 13.686c.851-.007 1.693.209 2.286-.083.597-.293.947-1.092 1.47-1.751.3.796.398 1.636.864 2.125.45.472 1.28.581 2.02.88-.174.148-.299.308-.462.383-1.14.527-1.62 1.388-1.404 2.639.032.186-.039.39-.07.652-.682-.455-1.26-1.096-1.926-1.21-.625-.107-1.345.344-2.223.61.219-.67.318-1.148.526-1.571.265-.54.172-.951-.206-1.39-.31-.362-.543-.79-.875-1.284z"/><path fill="#fdd335" d="m46.063 18.165.091-.283c.072-.222.132-.422.186-.606.11-.37.204-.691.349-.986.226-.46.174-.803-.184-1.22-.219-.254-.401-.542-.594-.846a21.308 21.308 0 0 0-.293-.453l-.16-.239.288-.002c.273-.003.543.017.804.037.538.04 1.046.078 1.414-.104.373-.183.656-.608.956-1.057.144-.216.293-.44.46-.651l.17-.215.097.257c.097.255.172.512.245.76.15.517.293 1.004.587 1.313.282.295.751.442 1.248.598.236.073.48.15.717.246l.237.096-.195.166a3.266 3.266 0 0 0-.152.14 1.284 1.284 0 0 1-.345.264c-1.086.503-1.517 1.31-1.316 2.472.026.151-.001.302-.03.461a3.957 3.957 0 0 0-.038.235l-.03.251-.21-.14c-.217-.145-.423-.307-.621-.463-.424-.334-.825-.65-1.246-.723-.381-.065-.825.11-1.34.312-.257.102-.523.207-.811.294zm-.026-4.32.136.213c.195.307.363.573.567.81.437.509.507.99.227 1.56-.133.27-.22.564-.33.936l-.096.324c.173-.06.34-.127.505-.192.557-.22 1.038-.408 1.504-.329.499.085.93.425 1.386.784.13.103.265.209.401.31l.001-.004c.025-.138.047-.256.03-.353-.225-1.3.277-2.244 1.491-2.806a.95.95 0 0 0 .237-.185c-.153-.054-.31-.103-.462-.15-.536-.168-1.043-.327-1.38-.68-.345-.363-.498-.886-.66-1.439a15.917 15.917 0 0 0-.142-.468c-.095.132-.185.268-.274.401-.324.486-.63.944-1.076 1.164-.445.218-.994.178-1.575.134-.16-.012-.325-.023-.49-.03zM49.523 32.447c-.659.71-1.157 1.297-1.712 1.825-.356.34-.487.672-.385 1.16.163.773.26 1.56.417 2.534-.863-.446-1.576-.779-2.25-1.176-.432-.253-.78-.256-1.213 0-.677.399-1.393.73-2.254 1.173.151-.955.232-1.745.413-2.51.126-.537-.046-.866-.424-1.212-.562-.515-1.073-1.086-1.731-1.764.806-.109 1.473-.232 2.145-.282.672-.05 1.143-.266 1.403-.96.25-.668.634-1.287 1.046-2.1.398.796.782 1.452 1.058 2.15.26.659.724.858 1.364.905.681.051 1.358.162 2.123.257z"/><path fill="#fdd335" d="m48.043 38.245-.273-.141c-.267-.138-.52-.265-.761-.387-.55-.277-1.027-.517-1.497-.793-.386-.227-.672-.227-1.054-.001-.472.278-.972.528-1.502.793-.241.121-.494.248-.76.384l-.272.14.047-.302c.047-.297.088-.577.126-.846.084-.587.163-1.142.29-1.675.102-.435.003-.713-.379-1.062-.39-.358-.746-.732-1.158-1.166a67.502 67.502 0 0 0-.58-.604l-.213-.22.304-.042c.257-.034.499-.07.731-.105.494-.074.96-.144 1.423-.178.702-.052 1.058-.293 1.27-.859.174-.465.404-.893.67-1.389.123-.228.251-.467.383-.727l.14-.275.137.276c.124.25.248.485.367.712.26.496.504.964.696 1.45.21.53.554.757 1.231.808.474.035.944.099 1.441.166.224.03.452.061.69.09l.3.038-.206.222c-.203.22-.392.428-.572.627-.407.45-.759.838-1.146 1.206-.331.316-.427.6-.34 1.016.113.537.193 1.07.286 1.685.041.27.084.554.132.856zm-3.06-1.801c.223 0 .446.07.687.213.46.27.932.508 1.478.783.16.08.323.163.493.25l-.085-.558a29.738 29.738 0 0 0-.282-1.668c-.11-.523.019-.912.43-1.304.378-.36.726-.745 1.13-1.19l.37-.407-.394-.053c-.493-.067-.958-.13-1.423-.165-.561-.042-1.178-.194-1.496-1.002-.186-.471-.428-.932-.683-1.42l-.232-.447c-.084.161-.167.315-.247.464-.261.486-.486.906-.653 1.35-.32.857-.956 1.016-1.536 1.06-.452.033-.913.102-1.4.174-.141.022-.285.043-.434.064l.37.388c.408.43.76.8 1.143 1.15.337.31.628.689.47 1.362-.123.52-.198 1.043-.284 1.648l-.08.55.493-.247c.548-.274 1.02-.51 1.483-.783.239-.141.46-.212.682-.212z"/></svg>