<svg xmlns="http://www.w3.org/2000/svg" width="100" height="100" fill="none" viewBox="0 0 100 100"><path fill="#fff" d="M0 0h100v100H0z"/><path fill="#fdd335" d="M58.792 75.684c0-4.732-3.837-8.568-8.571-8.568s-8.571 3.836-8.571 8.568c0 4.731 3.837 8.567 8.57 8.567 4.735 0 8.572-3.836 8.572-8.567z"/><g fill="#000"><path d="M49.99 10.026c11.548 0 23.097 0 34.645.002 2.132 0 3.75.904 4.771 2.793.39.721.594 1.504.594 2.336-.003 10.324.003 20.648-.006 30.971-.002 1.841-.821 3.304-2.311 4.342-.79.55-1.72.825-2.715.823-3.493-.009-6.986-.004-10.48-.002-6.428.003-12.858.01-19.287.005-.356 0-.557.084-.727.433-1.054 2.156-2.145 4.294-3.213 6.444-.262.53-.644.878-1.246.884-.606.006-.988-.347-1.25-.874-1.07-2.147-2.16-4.284-3.215-6.439-.167-.34-.349-.45-.717-.449-7.874.01-15.749.009-23.624.007-2.017 0-4.035-.03-6.052-.007-2.749.032-5.133-2.235-5.143-5.098-.024-6.471-.01-12.943-.008-19.414.002-3.837-.003-7.675.024-11.512.015-2.237 1.052-3.867 3.088-4.815.71-.331 1.475-.457 2.272-.456 11.533.009 23.067.006 34.6.006zm-.01 44.784c.11-.15.161-.202.192-.264.813-1.623 1.646-3.236 2.423-4.875.325-.686.802-.992 1.54-.99 3.509.006 7.017.002 10.526.002 6.67 0 13.342.004 20.013-.01.41 0 .857-.05 1.222-.218 1.057-.486 1.524-1.357 1.522-2.525-.015-10.174-.034-20.348-.006-30.523.005-1.571-1.208-2.822-2.821-2.809-6.716.055-13.432.025-20.148.023-16.399-.005-32.797-.012-49.196-.015-.238 0-.486.014-.713.079-1.237.354-1.933 1.288-1.936 2.605-.01 3.883-.014 7.766-.015 11.65-.003 6.306.024 12.612-.019 18.918-.01 1.53 1.118 2.961 2.905 2.889 1.262-.051 2.528-.04 3.792-.04 7.078-.004 14.155 0 21.233-.003 1.836 0 3.673-.013 5.51-.02.614-.003 1.069.268 1.34.813.535 1.074 1.05 2.158 1.582 3.233.329.667.672 1.328 1.054 2.08zM50.033 61.661c7.807-.05 14.167 6.43 14.163 14.118-.004 7.954-6.337 14.148-14.008 14.22-8.023.075-14.422-6.306-14.36-14.318.062-7.746 6.378-14.053 14.205-14.02zm.008 25.753c6.355.003 11.595-5.21 11.579-11.552-.017-6.465-5.15-11.562-11.463-11.632-6.558-.072-11.793 5.15-11.75 11.694.044 6.356 5.2 11.484 11.634 11.49z"/><path d="m83.706 14.387 1.185 2.635-5.906 2.658c.468.203.822.367 1.183.511 1.264.504 2.533.995 3.794 1.505.551.223.86.64.864 1.253.008 1.685.014 3.37.024 5.056.005 1.017-1.075 1.655-1.849 1.218-.189-.106-.42-.138-.7-.225-.014.242-.033.428-.033.614-.002 4.53-.001 9.06-.002 13.59 0 1.169-.469 1.642-1.625 1.642H60.675c-1.178 0-1.623-.448-1.623-1.638v-14.14c-.141 0-.231-.017-.312.002-1.27.297-2.49.722-3.658 1.312-.707.358-1.444.656-2.17.98.241.54.514 1.028.675 1.549.153.496.25 1.026.267 1.545.04 1.188-.004 2.378.02 3.566.019.883-.546 1.459-1.493 1.481-1.43.034-2.861.02-4.291 0-.34-.004-.494.108-.633.414-.538 1.19-1.421 1.98-2.704 2.36-2.163.64-4.347-.5-5.112-2.443-.101-.258-.253-.327-.509-.325-1.34.008-2.68-.004-4.02.011-.232.003-.48.064-.692.159-6.028 2.694-12.052 5.396-18.076 8.095-.136.06-.273.117-.468.2l-1.188-2.633 7.008-3.148c-.471-.4-.952-.746-1.353-1.168a3.877 3.877 0 0 1-.734-1.113c-.143-.331-.32-.412-.644-.405-.753.017-1.506.01-2.259.004-.995-.007-1.526-.54-1.526-1.534-.003-2.318-.002-4.635 0-6.953 0-.917.312-1.306 1.198-1.507.615-.14 1.234-.265 1.84-.432a.582.582 0 0 0 .34-.342c.45-1.494.827-3.011 1.325-4.488.849-2.518 2.552-4.205 5.099-5.049.962-.318 1.935-.358 2.926-.355 2.47.007 4.94-.009 7.409.006 3.45.021 6.465 2.399 7.35 5.684.355 1.318.609 2.664.888 4.002.053.253.14.35.403.362 1.607.08 3.214.174 4.822.265.15.009.319-.02.447.039.714.327 1.329.044 1.968-.251 1.61-.743 3.23-1.465 4.855-2.175.31-.135.414-.302.405-.639-.026-.917.022-1.837-.016-2.753-.056-1.36.462-1.54 1.331-1.89 1.592-.642 3.19-1.27 4.786-1.9 2.08-.823 4.162-1.643 6.242-2.466.33-.131.668-.252.983-.416.582-.303 1.142-.261 1.733-.013 1.099.462 2.205.91 3.324 1.319.234.085.57.056.805-.047 2.532-1.113 5.053-2.251 7.578-3.382.136-.061.274-.118.485-.207zm-4.039 27.845c.01-.141.021-.244.021-.346.001-4.53-.003-9.059.01-13.588 0-.32-.139-.46-.398-.559-.486-.184-.972-.367-1.455-.56-2.149-.858-4.295-1.727-6.449-2.574-.307-.12-.697-.28-.973-.189-.949.31-1.862.724-2.79 1.096-1.842.737-3.682 1.478-5.53 2.201-.332.13-.488.281-.486.675.016 4.454.01 8.908.01 13.362 0 .159.014.318.021.467h4.492v-.522c0-1.88-.001-3.762.001-5.643.002-1.058.484-1.545 1.53-1.547 1.987-.002 3.974-.002 5.962 0 1.039.002 1.54.505 1.542 1.547.002 1.896 0 3.792 0 5.688v.492zM45.04 31.7l-.028-.146c-.795-.041-1.59-.086-2.384-.123-.74-.036-1.172-.378-1.326-1.095-.224-1.043-.418-2.093-.652-3.134-.195-.863-.32-1.764-.667-2.567-.822-1.907-2.284-3.103-4.411-3.157-2.919-.073-5.842-.053-8.761.002-1.607.03-2.823.884-3.768 2.15-.609.818-.829 1.788-1.103 2.738-.382 1.327-.771 2.651-1.155 3.977-.185.64-.596 1.01-1.26 1.122-.458.077-.906.22-1.366.288-.326.048-.416.199-.413.51.014 1.158.005 2.317.005 3.475 0 1.177 0 1.165 1.198 1.173.34.003.503-.115.633-.43.512-1.235 1.443-2.065 2.709-2.433 2.193-.638 4.346.481 5.167 2.49.12.292.283.373.577.371 1.58-.01 3.162.016 4.742-.018.45-.01.931-.103 1.343-.285 3.012-1.328 6.011-2.688 9.013-4.04.637-.286 1.272-.579 1.907-.868zm27.517 10.528v-5.094h-3.802v5.095zm.314-19.808 9.373 3.74c0-.786.008-1.475-.01-2.163-.003-.095-.117-.233-.212-.273a595.811 595.811 0 0 0-5.518-2.237c-.299-.12-.675-.33-.924-.241-.883.313-1.727.737-2.71 1.174zm-.97-2.744c-.425-.188-.703-.333-.997-.43a.846.846 0 0 0-.486-.001c-.297.092-.578.235-.868.352-1.687.68-3.375 1.36-5.064 2.038-1.73.694-3.463 1.383-5.192 2.083-.102.041-.243.156-.248.243-.024.457-.011.917-.011 1.469L71.9 19.675zM45.858 34.53c.819.569 1.359 1.232 1.681 2.055.103.262.253.324.509.321.947-.01 1.895-.016 2.842.003.327.007.417-.122.412-.42-.011-.692.005-1.384-.007-2.075-.01-.59-.235-1.105-.585-1.577-.204-.275-.41-.326-.728-.173-.758.364-1.532.693-2.298 1.039-.585.263-1.168.529-1.826.827zm-2.275 1.935c-.975-.005-1.724.717-1.74 1.676a1.72 1.72 0 0 0 1.695 1.73 1.725 1.725 0 0 0 1.742-1.728 1.695 1.695 0 0 0-1.697-1.678zm-20.084 0a1.697 1.697 0 0 0-1.701 1.722c.006.95.735 1.677 1.69 1.683.978.007 1.719-.722 1.722-1.694a1.695 1.695 0 0 0-1.711-1.711z"/><path d="m31.048 31.448-7.136-.001c-1.444 0-1.949-.725-1.486-2.095.374-1.108.72-2.226 1.087-3.336.676-2.049 2.091-3.142 4.254-3.156 2.559-.018 5.118-.01 7.675.057 1.624.043 3.23 1.406 3.598 2.993.31 1.331.552 2.679.792 4.025.145.816-.463 1.495-1.332 1.507-1.295.017-2.59.005-3.884.006h-3.568zm-5.737-2.576c1.617 0 3.12-.002 4.624.002.299.001.29-.2.289-.4-.004-.887-.02-1.774-.015-2.662.001-.296-.124-.399-.407-.395-.692.01-1.385-.004-2.078.01-.62.011-1.155.225-1.483.78-.143.242-.23.52-.32.79-.2.59-.387 1.186-.61 1.875zm11.737-.001c-.198-.879-.32-1.68-.569-2.44-.187-.572-.683-.918-1.297-.964a18.95 18.95 0 0 0-2.024-.029c-.12.004-.33.22-.334.343-.022.93-.01 1.86.014 2.79.003.102.157.285.242.287 1.273.018 2.546.013 3.968.013zM51.904 83.533a.828.828 0 0 1-.263-.044 1.7 1.7 0 0 1-.219-.087l-.262-.131-5.911-4.683a2.15 2.15 0 0 1-.22-.131 2.858 2.858 0 0 1-.174-.307c-.059-.087-.102-.19-.132-.306s-.043-.234-.043-.35c0-.234.029-.438.087-.613a1.51 1.51 0 0 1 .394-.481c.146-.146.292-.248.438-.307a1.79 1.79 0 0 1 .57-.087h2.977c.846 0 1.43-.19 1.75-.57.351-.378.556-.656.614-.83h-5.998c-.176 0-.336-.03-.482-.088a1.167 1.167 0 0 1-.394-.263 1.164 1.164 0 0 1-.263-.394 1.284 1.284 0 0 1-.087-.481 1.17 1.17 0 0 1 .35-.832c.117-.116.248-.204.394-.262a.92.92 0 0 1 .482-.131l5.867.043a11.654 11.654 0 0 0-.526-.656c-.263-.38-.832-.57-1.707-.57l-3.634-.087-.395-.043a.972.972 0 0 1-.569-.394 1.42 1.42 0 0 1-.262-.657v-.35a.973.973 0 0 1 .13-.306c.06-.117.132-.219.22-.306a.969.969 0 0 1 .394-.307c.146-.058.306-.087.482-.087h8.625c.175 0 .336.029.482.087.146.059.277.146.394.263.116.116.204.248.262.394.059.145.088.306.088.481 0 .146-.03.306-.088.481a1.166 1.166 0 0 1-.262.394 1.165 1.165 0 0 1-.394.263 1.285 1.285 0 0 1-.482.087h-.7c.087.175.204.394.35.657.175.233.292.438.35.613h.219c.175 0 .292.043.35.13.088.06.19.147.307.263.116.117.204.248.262.394.059.146.088.292.088.438 0 .175-.03.335-.088.481a1.167 1.167 0 0 1-.262.394 1.168 1.168 0 0 1-.394.263 1.287 1.287 0 0 1-.482.087h-.088c-.087.555-.262 1.022-.525 1.4-.234.35-.555.701-.963 1.051a4.665 4.665 0 0 1-1.576 1.05 4.695 4.695 0 0 1-1.84.35h-.13l3.633 2.845c.088.088.146.16.175.219a.686.686 0 0 1 .132.175.97.97 0 0 1 .131.306c.03.088.044.19.044.307 0 .146-.03.306-.088.481a1.167 1.167 0 0 1-.262.394 1.168 1.168 0 0 1-.394.263 1.287 1.287 0 0 1-.482.087z"/></g><path fill="#fdd335" fill-rule="evenodd" d="m13.077 45.149 71.648-32.073 1.617 3.609-71.648 32.072z" clip-rule="evenodd"/></svg>