<svg xmlns="http://www.w3.org/2000/svg" width="100" height="100" fill="none" viewBox="0 0 100 100"><path fill="#fff" d="M0 0h100v100H0z"/><path fill="#fff" d="M10 10h80v80H10z"/><path fill="#fdd335" d="M49.395 71.538C49.395 81.736 41.247 90 31.197 90S13 81.735 13 71.538s8.147-18.46 18.197-18.46 18.198 8.264 18.198 18.46z"/><g fill="#000"><path d="M41.459 43.296c-4.12-3.79-6.368-8.443-6.447-14.06-.077-5.597 1.946-10.36 5.979-14.18 6.943-6.58 17.913-6.866 25.24-.103 2.662 2.457 4.481 5.458 5.427 8.981.94 3.505.9 7.011-.136 10.495-1.038 3.497-2.956 6.424-5.635 8.827 1.193.57 2.381 1.073 3.512 1.686 7.57 4.101 12.9 10.237 16.055 18.322.626 1.603 1.176 3.24 1.426 4.956.459 3.155-.407 5.934-2.41 8.357-1.734 2.1-3.966 3.301-6.64 3.648-.511.066-1.031.085-1.547.085-11.126.005-22.252.004-33.378.003-1.483 0-2.45-.95-2.407-2.358.031-1 .84-1.913 1.822-2.04.242-.032.489-.042.734-.042 11.048-.002 22.097-.006 33.146.004 1.506.001 2.881-.334 4.083-1.3 1.947-1.564 2.79-4.07 2.126-6.504-2.237-8.2-6.954-14.48-14.214-18.76-2.41-1.42-4.993-2.422-7.71-3.056-.98-.229-1.647-.77-1.87-1.8-.21-.981.28-1.953 1.263-2.445 2.394-1.2 4.33-2.923 5.79-5.193 5.414-8.425.77-19.917-8.904-22.033-7.823-1.711-15.393 3.189-17.086 11.14-1.376 6.46 1.701 12.947 7.566 15.99.36.187.74.412.996.719a2.189 2.189 0 0 1-1.155 3.545c-2.158.539-4.259 1.234-6.256 2.229-6.223 3.1-10.834 7.835-13.909 14.13-.208.427-.448.874-.783 1.192-.755.715-1.913.72-2.708.1-.84-.654-1.108-1.753-.653-2.747a34.071 34.071 0 0 1 3.169-5.52c3.877-5.478 8.875-9.52 15.04-12.063.142-.06.283-.122.474-.205z"/><path d="M28.315 79.54c-.453 0-.8-.123-1.04-.367s-.36-.581-.36-1.012c0-.445.12-.782.36-1.012.24-.23.587-.345 1.04-.345h2.145V68.05l1.55-.959-3.1 1.917c-.326.201-.63.28-.913.237a1.238 1.238 0 0 1-.7-.366 1.55 1.55 0 0 1-.404-.71 1.426 1.426 0 0 1 .085-.84c.113-.288.325-.532.637-.733l2.95-1.81c.298-.186.595-.337.892-.452.312-.114.616-.172.913-.172.425 0 .758.115.998.345.255.215.382.553.382 1.012v11.286h1.932c.439 0 .779.115 1.02.345.24.23.36.567.36 1.012 0 .445-.12.79-.36 1.034-.241.23-.581.345-1.02.345z"/></g></svg>