<svg xmlns="http://www.w3.org/2000/svg" width="100" height="100" fill="none" viewBox="0 0 100 100"><path fill="#fff" d="M0 0h100v100H0z"/><path fill="#fdd335" d="M48.192 33.73c0-4.266-3.462-7.724-7.733-7.724s-7.733 3.458-7.733 7.723c0 4.266 3.462 7.724 7.733 7.724s7.733-3.458 7.733-7.723z"/><g fill="#000"><path d="M59.31 41.178v1.534c0 .93.002 1.862 0 2.792-.005 1.151-.464 1.792-1.29 1.808-.818.016-1.306-.642-1.306-1.781l-.001-23.268c0-1.79.009-3.58-.002-5.37-.016-2.534-1.69-4.243-4.218-4.247-7.908-.014-15.816-.013-23.724 0-2.455.004-4.142 1.705-4.143 4.153-.006 16.776-.006 33.552-.001 50.33 0 2.558 1.643 4.22 4.207 4.226 7.263.014 14.526.005 21.79.007.285 0 .577-.012.857.036.703.121 1.172.698 1.134 1.352-.037.649-.574 1.177-1.265 1.234-.19.015-.382.006-.573.006-7.24 0-14.479.002-21.718 0-4.215-.001-7.044-2.84-7.044-7.064-.001-16.514.007-33.028-.013-49.542-.003-2.378.643-4.42 2.57-5.932 1.143-.896 2.454-1.422 3.9-1.426 8.123-.025 16.247-.044 24.37.002 3.666.02 6.456 3.063 6.466 6.928.016 6.515.01 13.03-.003 19.545-.001.489.136.836.489 1.19a6444.886 6444.886 0 0 1 15.76 15.83c1.57 1.581 2.41 3.532 2.42 5.73.044 9.712.022 19.424.018 29.137 0 .954-.521 1.577-1.286 1.595-.79.018-1.303-.61-1.304-1.628-.002-9.474-.014-18.948.01-28.422.005-1.924-.608-3.525-1.974-4.886-4.226-4.21-8.429-8.445-12.641-12.669-.428-.428-.86-.853-1.29-1.279z"/><path d="M52.037 47.697c-2.117 2.179-3.17 5.758-.383 8.57 2.05 2.067 4.111 4.124 6.18 6.174.713.707.798 1.149.348 2.024-1.617 3.139-1.321 6.11.804 8.915.086.114.177.225.259.343.467.67.376 1.446-.223 1.913-.52.405-1.277.296-1.778-.3-2.65-3.147-3.3-6.699-2.019-10.58.237-.716.163-1.137-.376-1.658a183.054 183.054 0 0 1-5.153-5.169c-2.485-2.598-3.07-5.989-1.441-9.18.705-1.38 1.742-2.602 2.7-3.84.497-.642 1.354-.608 1.952-.03 3.839 3.717 7.672 7.44 11.507 11.16 1.25 1.212 2.506 2.42 3.754 3.634.408.398.641.91.35 1.42-.2.352-.602.763-.959.81-.399.053-.955-.164-1.26-.454-2.886-2.747-5.73-5.535-8.59-8.31a2992.21 2992.21 0 0 0-5.25-5.076c-.134-.13-.282-.245-.422-.366zM28.683 34.724c.001-6.423 4.085-11.406 9.71-12.485 2.528-.485 4.991-.176 7.337.922.722.338 1.03 1.039.76 1.704-.286.709-.996.992-1.787.655-2.82-1.205-5.64-1.262-8.36.192-3.229 1.726-4.985 4.49-5.04 8.157-.057 3.702 1.646 6.548 4.86 8.343 5.736 3.205 12.917-.468 13.789-6.976.032-.236.046-.475.08-.711.113-.792.657-1.242 1.425-1.186.7.052 1.197.655 1.136 1.469-.119 1.584-.506 3.1-1.223 4.53-3.456 6.89-12.413 8.812-18.342 3.882-2.855-2.375-4.27-5.494-4.345-8.496zM53.97 87.346h5.85c.262 0 .526-.012.787.007.746.054 1.336.655 1.328 1.34-.008.674-.545 1.217-1.292 1.294-.189.02-.382.01-.573.01H31.836c-.167 0-.335.007-.501-.006-.793-.063-1.332-.604-1.326-1.321.007-.703.579-1.27 1.338-1.319.215-.014.43-.005.645-.005H51.33c.015-.312.038-.564.039-.817.003-1.885-.02-3.77.014-5.654.01-.53-.198-.795-.617-1.074a33.529 33.529 0 0 1-2.525-1.87c-.716-.58-.815-1.441-.305-2.017.508-.573 1.236-.533 1.986.01a70.24 70.24 0 0 0 3.237 2.201c.56.36.82.818.817 1.478-.012 2.29-.005 4.581-.004 6.872z"/><path d="M40.658 35.424c1.185-1.203 2.28-2.326 3.386-3.437a723.266 723.266 0 0 1 4.915-4.9c.675-.666 1.488-.662 2.011-.04.486.577.42 1.267-.223 1.917-1.408 1.424-2.828 2.837-4.246 4.252-1.552 1.55-3.11 3.092-4.658 4.646-.86.865-1.504.87-2.374-.002-1.16-1.166-2.324-2.328-3.49-3.489-.698-.695-.795-1.532-.231-2.078.586-.568 1.362-.473 2.078.254l2.832 2.877zM40.619 17.99c-1.24 0-2.479.008-3.718-.003-.938-.008-1.528-.542-1.514-1.338.014-.767.592-1.3 1.487-1.305 2.526-.013 5.053-.013 7.579 0 .872.005 1.487.573 1.496 1.313.008.768-.622 1.323-1.54 1.33-1.264.01-2.527.002-3.79.002zM40.63 68.657c-.428 0-.858.024-1.285-.005-.77-.054-1.325-.637-1.309-1.335.016-.69.602-1.274 1.357-1.297a41.1 41.1 0 0 1 2.5-.001c.8.024 1.4.63 1.387 1.345-.014.69-.583 1.242-1.364 1.29-.427.025-.857.004-1.285.003zM25.877 87.349c.757.029 1.385.661 1.362 1.37-.024.745-.715 1.324-1.521 1.274-.789-.049-1.358-.655-1.314-1.398.044-.722.699-1.276 1.473-1.246z"/></g></svg>