<svg xmlns="http://www.w3.org/2000/svg" width="100" height="100" fill="none" viewBox="0 0 100 100"><path fill="#fff" d="M0 0h100v100H0z"/><path fill="#fdd335" d="M37.235 43.564c0-3.751 3.048-6.792 6.809-6.792 3.76 0 6.808 3.041 6.808 6.792s-3.048 6.792-6.808 6.792-6.809-3.04-6.809-6.792z"/><g fill="#000"><path d="M90 54.175c-1.312-.019-2.624-.05-3.936-.053-3.258-.008-6.517-.006-9.775-.002-1.764.002-2.387.47-2.993 2.086-.078.208-.495.41-.757.412-2.837.03-5.676-.01-8.513.037a7.312 7.312 0 0 0-2.294.41c-4.057 1.445-8.092 2.95-12.142 4.416a3.969 3.969 0 0 1-1.3.23c-3.338.019-6.675.007-10.012.012-3.272.004-5.191 1.757-5.5 5.01-.01.1-.04.2-.08.394-.347-.087-.67-.15-.981-.248-5.237-1.629-10.478-3.245-15.705-4.903-1.842-.584-3.321.035-4.58 1.285-1.237 1.227-1.735 2.76-1.247 4.472.36 1.267 1.081 2.29 2.32 2.93 10.097 5.22 20.186 10.455 30.27 15.7 1.55.807 3.18.791 4.723.265 6.556-2.24 13.073-4.59 19.617-6.863.774-.269 1.624-.35 2.448-.43.729-.07 1.472.016 2.205-.024.87-.048 1.512-.033 1.819 1.092.307 1.126 1.393 1.456 2.539 1.454 4.283-.01 8.566-.005 12.849-.004.341 0 .683.01 1.024.015V79.35H75.775c-.022-.271-.057-.5-.057-.73-.002-7.102.006-14.203-.013-21.305-.001-.637.22-.79.82-.787 4.492.02 8.984.008 13.475.006zM56.697 74.247c-.016-.292-.01-.5-.041-.702-.38-2.491-2.454-4.236-5.092-4.245-4.467-.015-8.934-.003-13.4-.008-.34 0-.69 0-1.016-.08-1.27-.317-2.05-1.47-1.917-2.786.126-1.261 1.183-2.225 2.526-2.232 3.547-.016 7.095.01 10.642-.021a5.67 5.67 0 0 0 1.836-.324c4.127-1.483 8.238-3.009 12.36-4.506.387-.141.811-.252 1.219-.255 2.89-.021 5.78.004 8.67-.023.614-.006.817.165.812.796-.029 3.382-.014 6.764-.015 10.146 0 2.045-.015 4.09.01 6.134.007.545-.16.735-.716.717-1.156-.036-2.315-.056-3.468.006-.745.04-1.518.138-2.218.382-6.565 2.292-13.116 4.626-19.676 6.934-.413.145-.865.179-1.299.262-1.421.275-2.518-.51-3.677-1.112-9.505-4.933-19.013-9.86-28.519-14.794-1.11-.577-1.541-1.69-1.098-2.772.478-1.167 1.644-1.765 2.79-1.408a10169.83 10169.83 0 0 1 18.183 5.681c.294.093.606.219.833.416 1.112.966 2.408 1.32 3.856 1.315 4.414-.015 8.828-.008 13.243-.004 1.471.002 2.367.692 2.75 2.09.035.125.076.247.12.393zM32.37 42.748v2.384h2.394c0-.664.02-1.356-.02-2.044-.007-.12-.265-.315-.415-.324-.622-.037-1.247-.016-1.96-.016zM53.526 42.749v2.396h2.37c0-.683.026-1.352-.022-2.016-.01-.136-.286-.35-.451-.363-.593-.045-1.191-.017-1.897-.017z"/><path d="M83.46 76.758h2.33V74.38h-2.33zM78.384 74.374v2.42c.668 0 1.314.022 1.955-.016.142-.008.38-.219.388-.348.04-.67.018-1.342.018-2.056zM45.36 49.739a.606.606 0 0 1-.192-.032 1.247 1.247 0 0 1-.16-.064l-.192-.096-4.324-3.418a1.56 1.56 0 0 1-.16-.096 2.089 2.089 0 0 1-.128-.224.708.708 0 0 1-.096-.223 1.046 1.046 0 0 1-.032-.256c0-.17.021-.32.064-.447.064-.128.16-.245.288-.352a.977.977 0 0 1 .32-.223c.128-.043.267-.064.417-.064h2.178c.619 0 1.046-.139 1.28-.416.257-.277.406-.479.449-.607h-4.388a.942.942 0 0 1-.352-.064c-.107-.042-.203-.106-.288-.191a.855.855 0 0 1-.256-.64.853.853 0 0 1 .256-.606.853.853 0 0 1 .288-.192.673.673 0 0 1 .352-.096l4.292.032a8.525 8.525 0 0 0-.384-.48c-.193-.276-.609-.415-1.25-.415l-2.658-.063-.288-.032a.711.711 0 0 1-.416-.288 1.035 1.035 0 0 1-.192-.48v-.255a.71.71 0 0 1 .096-.223.854.854 0 0 1 .16-.224.708.708 0 0 1 .288-.224.942.942 0 0 1 .352-.064h6.31c.128 0 .245.022.352.064.107.043.203.107.288.192s.15.181.192.288.064.223.064.35c0 .107-.021.225-.064.352-.042.107-.106.203-.192.288a.863.863 0 0 1-.64.256h-.513c.064.127.15.287.256.479.129.17.214.32.257.447h.16c.128 0 .213.032.256.096.064.043.139.106.224.192s.15.18.192.287.064.213.064.32a.86.86 0 0 1-.256.639.854.854 0 0 1-.288.191.943.943 0 0 1-.352.064h-.064c-.064.405-.193.746-.385 1.023-.17.255-.406.51-.704.766-.342.341-.726.597-1.153.767a3.44 3.44 0 0 1-1.345.256h-.097l2.659 2.077a.688.688 0 0 1 .128.16.5.5 0 0 1 .096.127.708.708 0 0 1 .096.224.705.705 0 0 1 .032.223c0 .107-.021.224-.064.352-.043.106-.107.202-.192.287s-.182.15-.289.192-.224.064-.352.064z"/><path fill-rule="evenodd" d="M41.844 13.213A7.036 7.036 0 0 1 43.552 13h.534l.533.106c.427.071.854.178 1.28.32.428.142.819.284 1.175.426l.427.213.213-.107.427-.106c.64-.213 1.28-.32 1.92-.32a4.629 4.629 0 0 1 1.708.107l.427.106.32.213c.285.071.534.178.748.32l.64.425.213.32.854.639c.214.212.463.39.747.532.214.07.498.142.854.213.925.284 1.53.887 1.814 1.81.214.922 0 1.703-.64 2.342-.854.851-1.672 1.81-2.455 2.874s-1.53 2.236-2.24 3.513c1.778.71 3.699 2.236 5.762 4.578a23.139 23.139 0 0 1 4.482 7.666l.214.426c0 .142.035.283.106.425.57 1.988.854 4.01.854 6.069 0 1.987-.178 4.223-.533 6.707 0 .07-.036.426-.107 1.065-.142.638-.25 1.064-.32 1.277v.268c-.395.004-.79.009-1.184.015-.455.008-.922.06-1.378.154.058-1.272.342-3.156.854-5.654.64-3.122.356-6.423-.854-9.9s-2.917-6.14-5.122-7.985c-2.206-1.917-3.629-2.875-4.269-2.875-.711 0-1.707.284-2.988.852-1.28.497-2.882.745-4.803.745-1.992 0-3.592-.248-4.802-.745-1.28-.568-2.312-.852-3.095-.852s-2.241.852-4.375 2.555c-2.206 1.704-3.878 4.472-5.016 8.304-1.139 3.833-1.352 7.31-.64 10.434.64 3.123.96 5.11.96 5.962 0 .78-.285 1.561-.854 2.342-.64.78-.605 1.632.107 2.555.284.355.605.603.96.745l1.068.213h1.387a6.008 6.008 0 0 1 1.174-.106h.427c.213 0 .427.035.64.106h.545c-.5.626-.852 1.412-1.044 2.35a3.86 3.86 0 0 0-.248-.008 9.29 9.29 0 0 0-1.28.107h-.534c-1.139.07-2.064 0-2.775-.213-.783-.213-1.53-.746-2.241-1.597a3.865 3.865 0 0 1-.854-1.704c-.213-.638-.284-1.277-.213-1.916.07-.355.178-.674.32-.958.142-.355.32-.78.533-1.278l.427-.745-.106-.213-.427-2.448-.214-1.172c-.427-2.342-.604-4.577-.533-6.707.07-2.129.427-4.294 1.067-6.494.925-3.194 2.419-5.926 4.482-8.197 2.063-2.343 4.02-3.762 5.87-4.259l-.32-.639a25.338 25.338 0 0 0-1.815-2.661 22.887 22.887 0 0 0-2.454-2.875c-.712-.71-.925-1.526-.64-2.448.213-.923.782-1.526 1.707-1.81.285-.071.534-.142.747-.213.142-.142.32-.284.534-.426l.96-.958a5.33 5.33 0 0 1 1.6-.958c.499-.213 1.104-.32 1.815-.32h.534l.533.107c.356 0 .712.07 1.068.213.284.07.604.177.96.32l.534-.32a6.29 6.29 0 0 1 1.6-.64zm4.483 3.087c-.427-.213-1.281-.532-1.281-.532s-2.327-.165-2.988 0a3.784 3.784 0 0 0-1.174.639c-.356.284-.747.603-1.174.958-.285-.426-.676-.745-1.174-.958s-1.138-.32-1.92-.32c-1.14 0-1.85.355-2.135 1.065-.356.71-1.317 1.278-2.882 1.703 1.28 1.278 2.384 2.555 3.309 3.833.924 1.278 1.636 2.52 2.134 3.726.925.355 1.85.639 2.775.852.925.213 1.92.32 2.988.32l.747.106.96-.107c.996 0 2.028-.106 3.095-.32a23.59 23.59 0 0 0 2.989-.85c.782-1.562 1.636-2.946 2.56-4.153a22.273 22.273 0 0 1 2.776-3.407c-1.495-.425-2.455-.922-2.882-1.49-.427-.639-1.067-1.065-1.92-1.278-.143-.07-.25-.106-.321-.106h-.747c-.427 0-.854.106-1.28.32-.499.141-.961.39-1.388.745a9.722 9.722 0 0 0-1.067-.746z" clip-rule="evenodd"/></g></svg>