<svg xmlns="http://www.w3.org/2000/svg" width="18" height="18" fill="none" viewBox="0 0 18 18"><path fill="#797E96" d="M9 9.818a.818.818 0 0 0 .663-1.298l-.025-.032a.805.805 0 0 0-.213-.188A.818.818 0 1 0 9 9.818Z"/><path fill="#797E96" fill-rule="evenodd" d="M18 9a8.972 8.972 0 0 0-2.636-6.364 9 9 0 1 0 0 12.728A8.97 8.97 0 0 0 18 9Zm-7.046 7.583a7.867 7.867 0 0 1-1.878.246l.314-4.87 1.564 4.624Zm.146-.039a7.78 7.78 0 0 0 1.75-.725l-2.707-4.06.957 4.785Zm-1.8-5.268.018-1.09.56.935-.264-1.058.784.759-.53-.954.951.528-.756-.782 1.058.265-.936-.561 1.092-.018-1.05-.3 1.047-.299-1.089-.018.937-.561-1.059.264.758-.783-.953.53.53-.955-.784.76.265-1.059-.561.935-.018-1.09L9 7.773l-.3-1.049-.018 1.091-.56-.936.264 1.058-.783-.758.53.953-.955-.53.759.784-1.058-.264.935.56-1.09.018 1.049.3-1.052.3 1.093.018-.934.56 1.057-.264-.757.783.952-.53-.53.954.784-.758-.265 1.058.561-.936.018 1.09.3-1.048.3 1.05ZM7.857 6.242 5.15 2.182a7.81 7.81 0 0 1 1.75-.726l.957 4.786Zm-.81-4.825a7.865 7.865 0 0 1 1.877-.246L8.61 6.04 7.046 1.417ZM1.456 11.1l4.784-.957-4.06 2.707a7.786 7.786 0 0 1-.725-1.75Zm4.585-1.71-4.625 1.564a7.852 7.852 0 0 1-.245-1.878l4.87.314Zm9.777-4.24-4.062 2.708 4.787-.957a7.775 7.775 0 0 0-.725-1.75ZM11.96 8.61l4.622-1.563c.155.601.239 1.23.245 1.877l-4.867-.314Zm-.204 1.533 4.061 2.707a7.772 7.772 0 0 0 .726-1.75l-4.787-.957Zm3.986 2.838-4.373-2.162 3.219 3.663a7.731 7.731 0 0 0 1.154-1.501Zm-9.11-5.798L2.257 5.02A7.896 7.896 0 0 1 3.41 3.518l3.221 3.665ZM2.181 5.151 6.24 7.857l-4.784-.956a7.77 7.77 0 0 1 .726-1.75ZM5.15 15.82l2.707-4.062-.957 4.787a7.772 7.772 0 0 1-1.75-.725Zm2.031-4.45L5.02 15.742a7.877 7.877 0 0 1-1.502-1.154l3.664-3.22ZM11.1 1.455l-.957 4.786 2.707-4.06a7.768 7.768 0 0 0-1.75-.726Zm3.382 1.955a7.871 7.871 0 0 0-1.502-1.154l-2.163 4.375 3.665-3.221ZM12.98 15.743a7.837 7.837 0 0 0 1.502-1.154l-3.665-3.22 2.163 4.374ZM5.02 2.257l2.162 4.375L3.518 3.41A7.896 7.896 0 0 1 4.22 2.8l.143-.108a7.97 7.97 0 0 1 .379-.262l.136-.087.142-.086ZM2.258 12.98l4.373-2.162-3.22 3.664a7.87 7.87 0 0 1-1.153-1.502Zm12.331-9.462-3.22 3.665 4.374-2.163a7.868 7.868 0 0 0-1.154-1.502Zm1.994 7.436L11.96 9.39l4.868-.314a7.824 7.824 0 0 1-.245 1.878ZM1.417 7.046c-.154.601-.24 1.23-.245 1.878L6.04 8.61 1.417 7.046Zm5.63 9.537L8.61 11.96l.314 4.869a8.005 8.005 0 0 1-1.42-.143l-.21-.043a6.788 6.788 0 0 1-.248-.06ZM9.075 1.171l.314 4.87 1.564-4.624a7.866 7.866 0 0 0-1.878-.246Z" clip-rule="evenodd"/></svg>